<mxfile host="app.diagrams.net" modified="2023-05-11T06:50:29.360Z" agent="Mozilla/5.0 (Windows NT 10.0; Win64; x64) AppleWebKit/537.36 (KHTML, like Gecko) Chrome/113.0.0.0 Safari/537.36" version="21.2.9" etag="_8S65OLidyI4_2iVulKT" type="github">
  <diagram name="Page-1" id="XpkqMG4DgamtNfhGMaTh">
    <mxGraphModel>
      <root>
        <mxCell id="0" />
        <mxCell id="1" parent="0" />
      </root>
    </mxGraphModel>
  </diagram>
</mxfile>
